<mxfile host="app.diagrams.net" modified="2023-09-27T17:12:49.231Z" agent="Mozilla/5.0 (Windows NT 10.0; Win64; x64) AppleWebKit/537.36 (KHTML, like Gecko) Chrome/117.0.0.0 Safari/537.36" version="21.8.2" etag="89VCBINc67fYp3y9VqcX" type="github">
  <diagram name="Сторінка-1" id="S4ZHA5byF0YY7jYRc5Hf">
    <mxGraphModel>
      <root>
        <mxCell id="0" />
        <mxCell id="1" parent="0" />
      </root>
    </mxGraphModel>
  </diagram>
</mxfile>
